<?xml version="1.0" encoding="UTF-8" standalone="no"?>
<!DOCTYPE svg PUBLIC "-//W3C//DTD SVG 1.1//EN"
 "http://www.w3.org/Graphics/SVG/1.1/DTD/svg11.dtd">
<!-- Generated by graphviz version 2.24.0 (20090616.2323)
 -->
<!-- Title: paths Pages: 1 -->
<svg width="109pt" height="386pt"
 viewBox="0.00 0.00 109.00 386.00" xmlns="http://www.w3.org/2000/svg" xmlns:xlink="http://www.w3.org/1999/xlink">
<g id="graph1" class="graph" transform="scale(1 1) rotate(0) translate(4 382)">
<title>paths</title>
<polygon fill="white" stroke="white" points="-4,5 -4,-382 106,-382 106,5 -4,5"/>
<text text-anchor="middle" x="50.5" y="-9.2" font-family="Helvetica,sans-Serif" font-size="12.00">Path 2</text>
<!-- 1 -->
<g id="node1" class="node"><title>1</title>
<ellipse fill="none" stroke="black" cx="63" cy="-360" rx="35.0527" ry="18"/>
<text text-anchor="middle" x="63" y="-357.2" font-family="Helvetica,sans-Serif" font-size="12.00">if (a&gt;0)</text>
</g>
<!-- 2 -->
<g id="node2" class="node"><title>2</title>
<ellipse fill="none" stroke="black" cx="32" cy="-272" rx="32.1994" ry="18"/>
<text text-anchor="middle" x="32" y="-269.2" font-family="Helvetica,sans-Serif" font-size="12.00">x=x+1</text>
</g>
<!-- 1&#45;&gt;2 -->
<g id="edge2" class="edge"><title>1&#45;&gt;2</title>
<path fill="none" stroke="blue" stroke-width="2" d="M56.7267,-342.192C52.3988,-329.906 46.562,-313.337 41.646,-299.382"/>
<polygon fill="blue" stroke="blue" points="44.8878,-298.051 38.264,-289.782 38.2855,-300.376 44.8878,-298.051"/>
<text text-anchor="middle" x="60" y="-313.2" font-family="Helvetica,sans-Serif" font-size="12.00">true</text>
</g>
<!-- 3 -->
<g id="node3" class="node"><title>3</title>
<ellipse fill="none" stroke="black" cx="63" cy="-198" rx="38.2368" ry="18"/>
<text text-anchor="middle" x="63" y="-195.2" font-family="Helvetica,sans-Serif" font-size="12.00">if(b==3)</text>
</g>
<!-- 1&#45;&gt;3 -->
<g id="edge4" class="edge"><title>1&#45;&gt;3</title>
<path fill="none" stroke="black" d="M67.2462,-341.785C68.3764,-336.12 69.4384,-329.831 70,-324 73.2348,-290.416 70.0446,-251.641 66.9889,-226.074"/>
<polygon fill="black" stroke="black" points="70.4389,-225.458 65.7066,-215.979 63.4947,-226.34 70.4389,-225.458"/>
<text text-anchor="middle" x="84" y="-269.2" font-family="Helvetica,sans-Serif" font-size="12.00">false</text>
</g>
<!-- 2&#45;&gt;3 -->
<g id="edge6" class="edge"><title>2&#45;&gt;3</title>
<path fill="none" stroke="blue" stroke-width="2" d="M39.3466,-254.463C43.0259,-245.68 47.5622,-234.851 51.6748,-225.034"/>
<polygon fill="blue" stroke="blue" points="54.963,-226.243 55.5987,-215.668 48.5066,-223.539 54.963,-226.243"/>
</g>
<!-- 4 -->
<g id="node4" class="node"><title>4</title>
<ellipse fill="none" stroke="black" cx="37" cy="-110" rx="27" ry="18"/>
<text text-anchor="middle" x="37" y="-107.2" font-family="Helvetica,sans-Serif" font-size="12.00">y=0</text>
</g>
<!-- 3&#45;&gt;4 -->
<g id="edge8" class="edge"><title>3&#45;&gt;4</title>
<path fill="none" stroke="black" d="M57.6128,-179.766C54.0332,-167.651 49.2647,-151.511 45.2157,-137.807"/>
<polygon fill="black" stroke="black" points="48.4815,-136.508 42.2914,-127.909 41.7683,-138.491 48.4815,-136.508"/>
<text text-anchor="middle" x="62" y="-151.2" font-family="Helvetica,sans-Serif" font-size="12.00">true</text>
</g>
<!-- 5 -->
<g id="node5" class="node"><title>5</title>
<ellipse fill="none" stroke="black" cx="64" cy="-39" rx="11" ry="11"/>
<ellipse fill="none" stroke="black" cx="64" cy="-39" rx="15" ry="15"/>
</g>
<!-- 3&#45;&gt;5 -->
<g id="edge10" class="edge"><title>3&#45;&gt;5</title>
<path fill="none" stroke="blue" stroke-width="2" d="M67.2462,-179.785C68.3764,-174.12 69.4384,-167.831 70,-162 73.2497,-128.261 70.1732,-89.1374 67.3598,-64.238"/>
<polygon fill="blue" stroke="blue" points="70.8194,-63.692 66.1494,-54.182 63.8696,-64.5286 70.8194,-63.692"/>
<text text-anchor="middle" x="84" y="-107.2" font-family="Helvetica,sans-Serif" font-size="12.00">false</text>
</g>
<!-- 4&#45;&gt;5 -->
<g id="edge12" class="edge"><title>4&#45;&gt;5</title>
<path fill="none" stroke="black" d="M43.6742,-92.4494C47.1048,-83.428 51.3336,-72.308 55.0439,-62.5511"/>
<polygon fill="black" stroke="black" points="58.3846,-63.6131 58.6677,-53.022 51.8417,-61.1249 58.3846,-63.6131"/>
</g>
</g>
</svg>
