<?xml version="1.0" encoding="UTF-8" standalone="no"?>
<!DOCTYPE svg PUBLIC "-//W3C//DTD SVG 1.1//EN"
 "http://www.w3.org/Graphics/SVG/1.1/DTD/svg11.dtd">
<!-- Generated by graphviz version 2.24.0 (20090616.2323)
 -->
<!-- Title: livro Pages: 1 -->
<svg width="109pt" height="282pt"
 viewBox="0.00 0.00 109.00 282.00" xmlns="http://www.w3.org/2000/svg" xmlns:xlink="http://www.w3.org/1999/xlink">
<g id="graph1" class="graph" transform="scale(1 1) rotate(0) translate(4 278)">
<title>livro</title>
<polygon fill="white" stroke="white" points="-4,5 -4,-278 106,-278 106,5 -4,5"/>
<!-- 1 -->
<g id="node1" class="node"><title>1</title>
<ellipse fill="none" stroke="black" cx="63" cy="-256" rx="35.0527" ry="18"/>
<text text-anchor="middle" x="63" y="-253.2" font-family="Helvetica,sans-Serif" font-size="12.00">if (a&gt;0)</text>
</g>
<!-- 2 -->
<g id="node2" class="node"><title>2</title>
<ellipse fill="none" stroke="black" cx="32" cy="-188" rx="32.1994" ry="18"/>
<text text-anchor="middle" x="32" y="-185.2" font-family="Helvetica,sans-Serif" font-size="12.00">x=x+1</text>
</g>
<!-- 1&#45;&gt;2 -->
<g id="edge2" class="edge"><title>1&#45;&gt;2</title>
<path fill="none" stroke="black" d="M54.8551,-238.134C51.5902,-230.972 47.7585,-222.567 44.1756,-214.708"/>
<polygon fill="black" stroke="black" points="47.3161,-213.159 39.9833,-205.512 40.9468,-216.063 47.3161,-213.159"/>
<text text-anchor="middle" x="60" y="-219.2" font-family="Helvetica,sans-Serif" font-size="12.00">true</text>
</g>
<!-- 3 -->
<g id="node3" class="node"><title>3</title>
<ellipse fill="none" stroke="black" cx="63" cy="-134" rx="38.2368" ry="18"/>
<text text-anchor="middle" x="63" y="-131.2" font-family="Helvetica,sans-Serif" font-size="12.00">if(b==3)</text>
</g>
<!-- 1&#45;&gt;3 -->
<g id="edge4" class="edge"><title>1&#45;&gt;3</title>
<path fill="none" stroke="black" d="M68.5132,-237.94C69.1287,-235.299 69.6568,-232.595 70,-230 73.0135,-207.216 70.7688,-181.205 68.0458,-162.01"/>
<polygon fill="black" stroke="black" points="71.5023,-161.459 66.5143,-152.112 64.5846,-162.53 71.5023,-161.459"/>
<text text-anchor="middle" x="84" y="-185.2" font-family="Helvetica,sans-Serif" font-size="12.00">false</text>
</g>
<!-- 2&#45;&gt;3 -->
<g id="edge6" class="edge"><title>2&#45;&gt;3</title>
<path fill="none" stroke="black" d="M41.9792,-170.617C43.8222,-167.406 45.785,-163.987 47.7426,-160.577"/>
<polygon fill="black" stroke="black" points="50.8833,-162.136 52.8266,-151.721 44.8125,-158.651 50.8833,-162.136"/>
</g>
<!-- 4 -->
<g id="node4" class="node"><title>4</title>
<ellipse fill="none" stroke="black" cx="37" cy="-66" rx="27" ry="18"/>
<text text-anchor="middle" x="37" y="-63.2" font-family="Helvetica,sans-Serif" font-size="12.00">y=0</text>
</g>
<!-- 3&#45;&gt;4 -->
<g id="edge8" class="edge"><title>3&#45;&gt;4</title>
<path fill="none" stroke="black" d="M56.1069,-116.1C55.0645,-113.387 54.0028,-110.62 53,-108 51.1782,-103.241 49.2445,-98.1758 47.3746,-93.2714"/>
<polygon fill="black" stroke="black" points="50.513,-91.6778 43.6824,-83.5788 43.9715,-94.1697 50.513,-91.6778"/>
<text text-anchor="middle" x="63" y="-97.2" font-family="Helvetica,sans-Serif" font-size="12.00">true</text>
</g>
<!-- 5 -->
<g id="node5" class="node"><title>5</title>
<ellipse fill="none" stroke="black" cx="64" cy="-15" rx="11" ry="11"/>
<ellipse fill="none" stroke="black" cx="64" cy="-15" rx="15" ry="15"/>
</g>
<!-- 3&#45;&gt;5 -->
<g id="edge10" class="edge"><title>3&#45;&gt;5</title>
<path fill="none" stroke="black" d="M68.5132,-115.94C69.1287,-113.299 69.6568,-110.595 70,-108 73.0325,-85.072 70.8077,-58.7527 68.2512,-39.9782"/>
<polygon fill="black" stroke="black" points="71.6818,-39.2527 66.7449,-29.8785 64.7584,-40.2854 71.6818,-39.2527"/>
<text text-anchor="middle" x="84" y="-63.2" font-family="Helvetica,sans-Serif" font-size="12.00">false</text>
</g>
<!-- 4&#45;&gt;5 -->
<g id="edge12" class="edge"><title>4&#45;&gt;5</title>
<path fill="none" stroke="black" d="M45.9906,-49.0177C47.9925,-45.2363 50.1439,-41.1726 52.2386,-37.2161"/>
<polygon fill="black" stroke="black" points="55.3402,-38.8377 56.9259,-28.3622 49.1537,-35.5624 55.3402,-38.8377"/>
</g>
</g>
</svg>
